<mxfile host="app.diagrams.net" modified="2021-03-22T08:51:17.771Z" agent="5.0 (X11; Linux x86_64) AppleWebKit/537.36 (KHTML, like Gecko) Chrome/88.0.4324.182 Safari/537.36" etag="f-PVz86p763mZ8JFEyks" version="14.4.9" type="github">
  <diagram id="3228e29e-7158-1315-38df-8450db1d8a1d" name="Page-1">
    <mxGraphModel dx="2006" dy="1134" grid="1" gridSize="10" guides="1" tooltips="1" connect="1" arrows="1" fold="1" page="1" pageScale="1" pageWidth="1169" pageHeight="827" background="#ffffff" math="0" shadow="0">
      <root>
        <mxCell id="0" />
        <mxCell id="1" parent="0" />
        <mxCell id="9J0cg9gMdbM_iCFOdj_C-21558" value="release apps" style="rounded=1;whiteSpace=wrap;html=1;fillColor=none;labelPosition=center;verticalLabelPosition=middle;align=center;verticalAlign=top;" vertex="1" parent="1">
          <mxGeometry x="120" y="228.5" width="580" height="351.5" as="geometry" />
        </mxCell>
        <mxCell id="9J0cg9gMdbM_iCFOdj_C-21554" value="external apps" style="rounded=1;whiteSpace=wrap;html=1;fillColor=none;labelPosition=center;verticalLabelPosition=middle;align=center;verticalAlign=top;" vertex="1" parent="1">
          <mxGeometry x="520" y="450" width="170" height="290" as="geometry" />
        </mxCell>
        <mxCell id="9J0cg9gMdbM_iCFOdj_C-21550" value="our apps" style="rounded=1;whiteSpace=wrap;html=1;labelPosition=center;verticalLabelPosition=middle;align=center;verticalAlign=top;fillColor=none;" vertex="1" parent="1">
          <mxGeometry x="100" y="198.5" width="380" height="541.5" as="geometry" />
        </mxCell>
        <mxCell id="9J0cg9gMdbM_iCFOdj_C-21553" value="test apps" style="rounded=1;whiteSpace=wrap;html=1;labelPosition=center;verticalLabelPosition=middle;align=center;verticalAlign=top;fillColor=none;" vertex="1" parent="1">
          <mxGeometry x="130" y="620" width="570" height="110" as="geometry" />
        </mxCell>
        <mxCell id="9J0cg9gMdbM_iCFOdj_C-21549" value="our release apps" style="rounded=1;whiteSpace=wrap;html=1;labelPosition=center;verticalLabelPosition=middle;align=center;verticalAlign=top;fillColor=none;" vertex="1" parent="1">
          <mxGeometry x="130" y="250" width="320" height="320" as="geometry" />
        </mxCell>
        <mxCell id="21534" value="Invention" style="text;fontSize=24;align=center;verticalAlign=middle;html=1;fontColor=#FFFFFF;" parent="1" vertex="1">
          <mxGeometry x="299.5" y="228.5" width="190" height="70" as="geometry" />
        </mxCell>
        <mxCell id="21535" value="Revolution" style="text;fontSize=24;align=center;verticalAlign=middle;html=1;fontColor=#FFFFFF;" parent="1" vertex="1">
          <mxGeometry x="910" y="600" width="190" height="70" as="geometry" />
        </mxCell>
        <mxCell id="21536" value="Tradition" style="text;fontSize=24;align=center;verticalAlign=middle;html=1;fontColor=#FFFFFF;" parent="1" vertex="1">
          <mxGeometry x="499.5" y="558.5" width="190" height="70" as="geometry" />
        </mxCell>
        <mxCell id="21537" value="Military" style="text;align=center;html=1;fontColor=#FFFFFF;fontSize=16;" parent="1" vertex="1">
          <mxGeometry x="569.5" y="198.5" width="40" height="40" as="geometry" />
        </mxCell>
        <mxCell id="21538" value="Conflict" style="text;align=center;html=1;fontColor=#FFFFFF;fontSize=16;" parent="1" vertex="1">
          <mxGeometry x="449.5" y="418.5" width="40" height="40" as="geometry" />
        </mxCell>
        <mxCell id="21539" value="Chaos" style="text;align=center;html=1;fontColor=#FFFFFF;fontSize=16;" parent="1" vertex="1">
          <mxGeometry x="780" y="417.75" width="40" height="40" as="geometry" />
        </mxCell>
        <mxCell id="21540" value="Balance" style="text;align=center;html=1;fontColor=#FFFFFF;fontSize=16;" parent="1" vertex="1">
          <mxGeometry x="569.5" y="348.5" width="40" height="40" as="geometry" />
        </mxCell>
        <mxCell id="9J0cg9gMdbM_iCFOdj_C-21540" value="our test apps" style="ellipse;whiteSpace=wrap;html=1;" vertex="1" parent="1">
          <mxGeometry x="230" y="635" width="120" height="80" as="geometry" />
        </mxCell>
        <mxCell id="9J0cg9gMdbM_iCFOdj_C-21542" value="our interface apps" style="ellipse;whiteSpace=wrap;html=1;" vertex="1" parent="1">
          <mxGeometry x="299.5" y="374" width="120" height="80" as="geometry" />
        </mxCell>
        <mxCell id="9J0cg9gMdbM_iCFOdj_C-21543" value="our data apps" style="ellipse;whiteSpace=wrap;html=1;" vertex="1" parent="1">
          <mxGeometry x="299.5" y="280" width="120" height="80" as="geometry" />
        </mxCell>
        <mxCell id="9J0cg9gMdbM_iCFOdj_C-21544" value="our system apps" style="ellipse;whiteSpace=wrap;html=1;" vertex="1" parent="1">
          <mxGeometry x="160" y="374" width="120" height="80" as="geometry" />
        </mxCell>
        <mxCell id="9J0cg9gMdbM_iCFOdj_C-21545" value="our bo apps" style="ellipse;whiteSpace=wrap;html=1;" vertex="1" parent="1">
          <mxGeometry x="160" y="470" width="120" height="80" as="geometry" />
        </mxCell>
        <mxCell id="9J0cg9gMdbM_iCFOdj_C-21546" value="our utility apps" style="ellipse;whiteSpace=wrap;html=1;" vertex="1" parent="1">
          <mxGeometry x="160" y="280" width="120" height="80" as="geometry" />
        </mxCell>
        <mxCell id="9J0cg9gMdbM_iCFOdj_C-21547" value="external release apps" style="ellipse;whiteSpace=wrap;html=1;" vertex="1" parent="1">
          <mxGeometry x="540" y="478.5" width="120" height="80" as="geometry" />
        </mxCell>
        <mxCell id="9J0cg9gMdbM_iCFOdj_C-21548" value="external test apps" style="ellipse;whiteSpace=wrap;html=1;" vertex="1" parent="1">
          <mxGeometry x="540" y="635" width="120" height="80" as="geometry" />
        </mxCell>
        <mxCell id="9J0cg9gMdbM_iCFOdj_C-21563" value="Test apps: applications used during testing&lt;br style=&quot;font-size: 18px&quot;&gt;Release apps: applications included on live systems&lt;br style=&quot;font-size: 18px&quot;&gt;Externals apps: non-Klarna owned apps&lt;br style=&quot;font-size: 18px&quot;&gt;Tested apps: all apps which are tested&lt;br&gt;&lt;font style=&quot;font-size: 12px&quot;&gt;&lt;font style=&quot;font-size: 12px&quot;&gt;&lt;br&gt;Release rpm:&lt;br&gt;* &quot;make myday&quot; =&amp;gt; builds &quot;release apps&quot; with -DNOTEST&lt;br&gt;&lt;/font&gt;* &quot;make tests&quot; =&amp;gt; builds &quot;tested apps&quot; with -DTEST&lt;br&gt;&lt;br&gt;Devel rpm:&lt;br&gt;* &quot;make myday&quot; =&amp;gt; builds &quot;release apps&quot; + &quot;tested apps&quot; with -DTEST&lt;br&gt;&lt;/font&gt;" style="text;html=1;strokeColor=none;fillColor=none;spacing=5;spacingTop=-20;whiteSpace=wrap;overflow=hidden;rounded=0;align=left;fontSize=18;" vertex="1" parent="1">
          <mxGeometry x="721" y="129" width="440" height="330" as="geometry" />
        </mxCell>
        <mxCell id="9J0cg9gMdbM_iCFOdj_C-21568" value="tested apps == our apps -- (small set of apps we are not testing)&lt;br&gt;" style="rounded=1;whiteSpace=wrap;html=1;fontSize=12;align=center;" vertex="1" parent="1">
          <mxGeometry x="80" y="100" width="240" height="50" as="geometry" />
        </mxCell>
      </root>
    </mxGraphModel>
  </diagram>
</mxfile>
